<?xml version="1.0" standalone="no"?>
<!DOCTYPE svg PUBLIC "-//W3C//DTD SVG 20010904//EN"
 "http://www.w3.org/TR/2001/REC-SVG-20010904/DTD/svg10.dtd">
<svg version="1.0" xmlns="http://www.w3.org/2000/svg"
 width="512.000000pt" height="512.000000pt" viewBox="0 0 512.000000 512.000000"
 preserveAspectRatio="xMidYMid meet">
<metadata>
Created by potrace 1.16, written by Peter Selinger 2001-2019
</metadata>
<g transform="translate(0.000000,512.000000) scale(0.100000,-0.100000)"
fill="#ffffff" stroke="none">
<path d="M2265 5049 c-753 -90 -1432 -523 -1835 -1169 -181 -290 -309 -652
-355 -1003 -20 -156 -20 -478 0 -634 73 -555 320 -1059 715 -1453 323 -324
728 -554 1162 -660 233 -57 309 -65 613 -65 248 0 295 3 408 23 270 49 501
126 732 246 248 128 431 261 625 456 204 203 335 385 471 655 128 254 206 510
244 798 20 156 20 478 0 634 -73 556 -320 1058 -715 1453 -209 210 -412 354
-685 486 -223 108 -411 168 -672 215 -95 17 -167 22 -373 25 -140 1 -291 -2
-335 -7z m1123 -815 l52 -7 0 -262 0 -263 -217 -3 c-215 -4 -219 -4 -275 -32
-114 -56 -128 -101 -128 -419 l0 -238 298 0 299 0 -38 -292 c-21 -161 -38
-296 -39 -300 0 -5 -117 -8 -260 -8 l-260 0 0 -770 0 -770 -310 0 -310 0 0
770 0 770 -260 0 -260 0 0 300 0 300 259 0 259 0 5 293 c6 312 13 374 61 502
87 229 287 388 551 435 52 9 479 5 573 -6z"/>
</g>
</svg>
