<?xml version="1.0" standalone="no"?>
<!DOCTYPE svg PUBLIC "-//W3C//DTD SVG 20010904//EN"
 "http://www.w3.org/TR/2001/REC-SVG-20010904/DTD/svg10.dtd">
<svg version="1.0" xmlns="http://www.w3.org/2000/svg"
 width="512.000000pt" height="512.000000pt" viewBox="0 0 512.000000 512.000000"
 preserveAspectRatio="xMidYMid meet">
<metadata>
Created by potrace 1.16, written by Peter Selinger 2001-2019
</metadata>
<g transform="translate(0.000000,512.000000) scale(0.100000,-0.100000)"
fill="#ffffff" stroke="none">
<path d="M2235 5105 c-462 -60 -885 -237 -1255 -523 -117 -91 -316 -287 -413
-407 -276 -342 -459 -746 -537 -1186 -28 -156 -39 -531 -21 -702 43 -399 182
-790 398 -1122 98 -150 184 -257 318 -394 419 -430 948 -690 1550 -760 134
-16 460 -13 605 4 748 93 1416 512 1833 1150 210 321 344 690 392 1075 20 162
20 477 0 640 -92 742 -510 1412 -1140 1826 -329 216 -695 350 -1085 399 -152
18 -501 18 -645 0z m533 -795 c256 -60 483 -245 598 -487 83 -177 108 -406 64
-593 -106 -442 -550 -744 -996 -676 -295 44 -542 225 -674 491 -27 55 -56 129
-65 164 -80 316 7 634 234 862 224 224 530 311 839 239z m-988 -1782 c18 -6
80 -39 137 -74 413 -251 931 -243 1316 18 114 77 210 88 290 32 88 -62 125
-200 73 -276 -59 -87 -216 -203 -364 -269 -103 -45 -270 -90 -404 -109 -49 -7
-88 -17 -88 -22 0 -6 155 -166 344 -357 189 -190 351 -360 360 -378 22 -44 21
-125 -3 -171 -56 -108 -190 -163 -284 -116 -18 9 -154 137 -302 285 -174 172
-278 269 -291 269 -13 0 -111 -91 -274 -255 -140 -141 -272 -267 -292 -281
-52 -37 -106 -47 -161 -30 -128 38 -204 171 -162 284 15 39 73 103 366 397
192 193 349 353 349 357 0 3 -28 8 -62 12 -193 21 -430 97 -570 184 -263 161
-318 283 -200 441 45 61 143 87 222 59z"/>
<path d="M2490 3878 c-233 -27 -406 -260 -371 -501 52 -361 499 -511 757 -253
130 131 166 346 84 511 -89 181 -258 268 -470 243z"/>
</g>
</svg>
