<?xml version="1.0" standalone="no"?>
<!DOCTYPE svg PUBLIC "-//W3C//DTD SVG 20010904//EN"
 "http://www.w3.org/TR/2001/REC-SVG-20010904/DTD/svg10.dtd">
<svg version="1.0" xmlns="http://www.w3.org/2000/svg"
 width="512.000000pt" height="512.000000pt" viewBox="0 0 512.000000 512.000000"
 preserveAspectRatio="xMidYMid meet">
<metadata>
Created by potrace 1.16, written by Peter Selinger 2001-2019
</metadata>
<g transform="translate(0.000000,512.000000) scale(0.100000,-0.100000)"
fill="#ffffff" stroke="none">
<path d="M2310 5113 c-485 -49 -947 -234 -1330 -531 -117 -91 -316 -287 -413
-407 -285 -353 -467 -765 -544 -1230 -26 -158 -26 -612 0 -770 95 -573 344
-1057 748 -1450 411 -400 898 -634 1479 -711 174 -22 553 -15 726 15 262 45
485 117 719 232 248 122 448 263 654 464 399 389 647 862 742 1419 30 174 37
541 15 726 -92 751 -507 1419 -1141 1836 -329 216 -695 350 -1085 399 -113 14
-466 19 -570 8z m415 -1743 c46 -14 71 -33 94 -75 14 -26 16 -73 16 -370 0
-325 1 -342 20 -375 15 -25 29 -36 50 -38 76 -9 321 332 436 608 57 135 71
161 100 175 41 22 613 22 664 1 61 -26 58 -94 -11 -231 -39 -77 -66 -116 -265
-386 -75 -102 -146 -201 -158 -220 -32 -51 -43 -102 -31 -135 6 -15 89 -107
184 -203 158 -161 274 -300 312 -373 9 -16 16 -47 16 -69 0 -49 -37 -94 -91
-109 -50 -14 -487 -13 -553 1 -94 20 -127 45 -308 229 -150 152 -181 179 -214
185 -76 15 -111 -40 -141 -225 -10 -58 -25 -117 -33 -132 -26 -44 -76 -58
-216 -58 -342 0 -610 115 -858 367 -182 184 -394 506 -583 882 -185 372 -208
437 -164 476 19 18 39 19 281 17 280 -3 307 -7 348 -55 12 -14 41 -70 65 -124
78 -180 169 -340 281 -494 129 -175 196 -183 229 -27 24 115 19 496 -7 544
-24 44 -72 82 -113 90 -51 9 -63 29 -38 62 28 38 75 63 136 73 74 11 503 3
552 -11z"/>
</g>
</svg>
