<?xml version="1.0" standalone="no"?>
<!DOCTYPE svg PUBLIC "-//W3C//DTD SVG 20010904//EN"
 "http://www.w3.org/TR/2001/REC-SVG-20010904/DTD/svg10.dtd">
<svg version="1.0" xmlns="http://www.w3.org/2000/svg"
 width="512.000000pt" height="512.000000pt" viewBox="0 0 512.000000 512.000000"
 preserveAspectRatio="xMidYMid meet">
<metadata>
Created by potrace 1.16, written by Peter Selinger 2001-2019
</metadata>
<g transform="translate(0.000000,512.000000) scale(0.100000,-0.100000)"
fill="#ffffff" stroke="none">
<path d="M2310 5113 c-485 -49 -947 -234 -1330 -531 -117 -91 -316 -287 -413
-407 -279 -346 -461 -750 -539 -1199 -29 -172 -37 -551 -14 -726 43 -322 122
-581 263 -858 118 -233 256 -424 448 -621 414 -425 923 -678 1525 -757 174
-22 553 -15 726 15 262 45 485 117 719 232 248 122 448 263 654 464 397 387
647 864 742 1419 30 174 37 541 15 726 -92 751 -507 1419 -1141 1836 -329 216
-695 350 -1085 399 -113 14 -466 19 -570 8z m1176 -1604 c188 -34 349 -186
399 -374 22 -88 22 -1062 0 -1150 -50 -188 -211 -340 -399 -374 -76 -14 -1771
-15 -1842 -2 -182 35 -325 153 -395 328 l-24 58 -3 534 c-2 365 1 551 8 588
39 187 210 356 395 391 73 14 1785 15 1861 1z"/>
<path d="M2200 2560 c0 -232 3 -419 8 -417 56 29 712 413 712 417 0 4 -606
360 -687 403 l-33 17 0 -420z"/>
</g>
</svg>
